# xmcd
#
# Track frame offsets:
#	150
#	26960
#	37467
#	53922
#	66635
#	82805
#	99495
#	122725
#	137310
#	148625
#	186287
#	201665
#	214235
#
# Disc length: 2875 seconds
#
# Revision: 1
# Processed by: cddbd v1.5.1PL0 Copyright (c) Steve Scherf et al.
# Submitted via: audiograbber 1.83.01
#
DISCID=d00b390d
DTITLE=Paddy Doyles - Twenty-five years later .....
DYEAR=1993
DGENRE=Irish
TTITLE0=Sailors alphabet
TTITLE1=Johhny Todd
TTITLE2=The broom o' the cowdeknowes
TTITLE3=Life of a man
TTITLE4=Rody McCorley
TTITLE5=Sliav gallion Braes
TTITLE6=A sandpipers song
TTITLE7=Pack up your sorrows
TTITLE8=Goodbye Mick
TTITLE9=Bright days
TTITLE10=The old Polina
TTITLE11=Courting the Kitchen
TTITLE12=Extra track
EXTD=
EXTT0=
EXTT1=
EXTT2=
EXTT3=
EXTT4=
EXTT5=
EXTT6=
EXTT7=
EXTT8=
EXTT9=
EXTT10=
EXTT11=
EXTT12=
PLAYORDER=
